<svg width="78" height="78" viewBox="0 0 78 78" fill="none" xmlns="http://www.w3.org/2000/svg">
<path d="M69.6429 0H8.35714C6.14069 0 4.01502 0.880482 2.44775 2.44775C0.880482 4.01502 0 6.14069 0 8.35714L0 69.6429C0 71.8593 0.880482 73.985 2.44775 75.5523C4.01502 77.1195 6.14069 78 8.35714 78H32.2533V51.4817H21.2846V39H32.2533V29.4868C32.2533 18.666 38.6953 12.6889 48.562 12.6889C53.2872 12.6889 58.2284 13.5316 58.2284 13.5316V24.1521H52.7841C47.4198 24.1521 45.7467 27.4811 45.7467 30.8953V39H57.7217L55.8066 51.4817H45.7467V78H69.6429C71.8593 78 73.985 77.1195 75.5523 75.5523C77.1195 73.985 78 71.8593 78 69.6429V8.35714C78 6.14069 77.1195 4.01502 75.5523 2.44775C73.985 0.880482 71.8593 0 69.6429 0V0Z" fill="#231C17"/>
</svg>
