<svg width="78" height="78" viewBox="0 0 78 78" fill="none" xmlns="http://www.w3.org/2000/svg">
<path d="M39.0087 19.0018C27.9417 19.0018 19.0149 27.9305 19.0149 39C19.0149 50.0695 27.9417 58.9982 39.0087 58.9982C50.0757 58.9982 59.0025 50.0695 59.0025 39C59.0025 27.9305 50.0757 19.0018 39.0087 19.0018ZM39.0087 52.0015C31.8569 52.0015 26.0101 46.1708 26.0101 39C26.0101 31.8292 31.8395 25.9986 39.0087 25.9986C46.1779 25.9986 52.0073 31.8292 52.0073 39C52.0073 46.1708 46.1605 52.0015 39.0087 52.0015V52.0015ZM64.4838 18.1838C64.4838 20.7771 62.3957 22.8483 59.8203 22.8483C57.2276 22.8483 55.1568 20.7597 55.1568 18.1838C55.1568 15.6078 57.245 13.5192 59.8203 13.5192C62.3957 13.5192 64.4838 15.6078 64.4838 18.1838ZM77.7259 22.9179C77.4301 16.6695 76.0032 11.1348 71.4268 6.5747C66.8677 2.01462 61.3342 0.587415 55.0872 0.274127C48.6489 -0.0913757 29.3511 -0.0913757 22.9128 0.274127C16.6832 0.57001 11.1497 1.99721 6.57323 6.55729C1.99677 11.1174 0.587284 16.6521 0.274066 22.9005C-0.0913553 29.3403 -0.0913553 48.6423 0.274066 55.0821C0.569883 61.3305 1.99677 66.8652 6.57323 71.4253C11.1497 75.9854 16.6658 77.4126 22.9128 77.7259C29.3511 78.0914 48.6489 78.0914 55.0872 77.7259C61.3342 77.43 66.8677 76.0028 71.4268 71.4253C75.9858 66.8652 77.4127 61.3305 77.7259 55.0821C78.0914 48.6423 78.0914 29.3577 77.7259 22.9179V22.9179ZM69.4083 61.9919C68.051 65.4032 65.4234 68.0314 61.9954 69.4063C56.8621 71.4427 44.6814 70.9728 39.0087 70.9728C33.336 70.9728 21.1379 71.4253 16.022 69.4063C12.6114 68.0488 9.98383 65.4206 8.60915 61.9919C6.57323 56.8574 7.04306 44.674 7.04306 39C7.04306 33.326 6.59063 21.1252 8.60915 16.0081C9.96643 12.5968 12.594 9.96865 16.022 8.59366C21.1553 6.55729 33.336 7.02722 39.0087 7.02722C44.6814 7.02722 56.8795 6.5747 61.9954 8.59366C65.406 9.95124 68.0336 12.5794 69.4083 16.0081C71.4442 21.1426 70.9743 33.326 70.9743 39C70.9743 44.674 71.4442 56.8748 69.4083 61.9919Z" fill="#231C17"/>
</svg>
