<?xml version="1.0" standalone="yes"?>
<svg xmlns="http://www.w3.org/2000/svg" width="512" height="512">
<path style="fill:#ffffff; stroke:none;" d="M0 0L0 128L1 128C6.91426 108.044 27.3872 110 44 110L170 110L398 110L454 110C463.761 110 473.897 108.766 481.999 115.34C492.479 123.844 493.125 136.628 495.6 149C500.827 175.13 508.887 202.453 511 229L512 229L512 0L0 0z"/>
<path style="fill:#010101; stroke:none;" d="M48 360C50.9063 395.534 95.5856 412.884 124 394.239C131.745 389.157 137.641 382.295 141.727 374C143.502 370.397 143.852 364.427 146.728 361.603C152.803 355.637 171.564 366.121 172.667 352.997C173.911 338.177 152.596 348.148 146.728 342.397C143.623 339.354 143.008 332.869 141.019 329C137.221 321.614 130.918 314.821 124 310.248C94.9732 291.061 52.665 309.385 48 344C39.4273 344 22.4856 347.437 17.2785 338.906C10.6638 328.068 15 305.387 15 293L15 178L15 145C15.002 139.754 14.6869 133.518 18.5687 129.394C23.9472 123.68 35.9074 126 43 126L110 126L378 126L452 126C463.878 126 475.679 124.986 477 140L401 140C392.01 140 378.607 137.526 371.105 143.569C360.463 152.14 366 182.468 366 195C366 210.247 361.408 234.521 369.482 247.999C375.706 258.388 389.229 263.107 400 267.186C429.705 278.436 465.459 282 497 282C497 295.999 497.067 310.001 496.999 324C496.967 330.719 496.21 338.072 489.96 341.991C483.267 346.187 471.614 344 464 344C459.185 308.271 413.376 289.544 385 312.468C378.818 317.462 373.297 323.696 370.04 331C368.294 334.917 367.636 342.345 362.891 343.682C353.897 346.216 341.343 344 332 344L266 344L208 344C201.727 344 191.331 343.848 192.192 353C193.042 362.03 204.692 360 211 360L274 360L335 360C343.458 360 354.745 358.023 362.891 360.318C367.606 361.646 367.695 368.182 369.338 372C372.388 379.089 377.04 385.626 383.001 390.535C410.959 413.563 460.822 398.86 464 360C477.735 360 494.259 362.814 504.815 351.896C516.19 340.131 512 319 512 304C512 280.024 514.214 254.85 511.829 231C510.165 214.35 505.368 197.44 502.197 181C498.536 162.022 498.137 123.996 480 113.225C469.667 107.088 453.57 110 442 110L354 110C244.127 110 133.83 107.147 24 110.015C-9.28579 110.884 0 157.935 0 180L0 305C0 319.354 -4.36792 341.46 6.3287 352.815C16.4306 363.538 34.7214 360 48 360z"/>
<path style="fill:#ffffff; stroke:none;" d="M48 344C54.8168 311.061 93.3517 290.651 123 310.248C130.241 315.035 137.041 322.264 141.019 330C142.898 333.655 143.469 339.327 146.139 342.397C151.148 348.157 174.079 338.38 172.353 352.997C170.772 366.382 151.774 355.083 146.14 361.603C143.721 364.403 143.379 369.645 141.727 373C137.452 381.679 131.096 388.927 123 394.239C94.2684 413.092 52.6191 394.134 48 360C30.3297 360 7.35126 363.584 1 342L0 342L0 512L512 512L512 340L511 340C504.523 362.01 482.285 360 464 360C458.929 397.471 412.433 413.877 384 390.535C377.654 385.326 372.587 378.551 369.338 371C367.927 367.721 367.749 361.53 363.772 360.318C355.291 357.733 342.867 360 334 360L270 360L210 360C204.075 360 192.128 361.185 192.377 352.004C192.622 342.96 204.978 344 211 344L274 344L336 344C344.288 344 355.841 346.099 363.772 343.682C367.964 342.405 368.811 334.523 370.492 331C373.959 323.735 379.783 317.49 386 312.468C415.056 288.996 456.968 310.02 464 344C471.718 344 484.19 346.369 490.906 341.991C496.864 338.106 496.99 330.366 497 324L497 282C465.532 282 429.53 278.294 400 266.796C388.98 262.506 375.852 257.668 369.482 247C361.536 233.691 366 210.036 366 195C366 181.75 360.429 152.506 372.043 143.569C379.959 137.478 393.622 140 403 140L477 140C476.287 124.428 464.113 126 452 126L377 126L110 126L43 126C36.2617 126 23.8775 123.626 18.5687 128.653C14.7915 132.229 15.0077 138.23 15 143L15 177L15 294C15 306.066 10.5498 329.405 17.2785 339.811C22.2069 347.433 40.0751 344 48 344z"/>
<path style="fill:#010101; stroke:none;" d="M44 140.468C33.0476 142.592 33 151.857 33 161L33 221C33 228.328 30.7605 240.003 36.2785 245.775C43.6006 253.435 61.3586 250 71 250L139 250C149.663 250 162.617 251.991 173 249.467C183.914 246.813 183 236.972 183 228L183 168C183 160.407 185.186 149.04 178.786 143.43C171.088 136.681 153.522 140 144 140L78 140C67.0911 140 54.7252 138.388 44 140.468M209 140.468C197.319 142.733 198 152.435 198 162L198 222C198 229.28 195.731 240.874 201.533 246.431C208.806 253.398 226.716 250 236 250L304 250C314.753 250 327.518 251.867 338 249.316C348.076 246.862 348 237.536 348 229L348 168C348 160.519 350.102 149.098 343.775 143.569C335.934 136.716 318.682 140 309 140L243 140C232.091 140 219.726 138.389 209 140.468z"/>
<path style="fill:#ffffff; stroke:none;" d="M49 156L49 234L100 234L100 156L49 156M116 156L116 234L167 234L167 156L116 156M213 156L213 234L265 234C265 225.943 260.645 200.019 272.001 198.427C285.287 196.564 281 226.546 281 234L332 234L332 156L281 156C281 161.472 282.294 168.943 279.543 173.895C276.166 179.975 268.301 179.473 265.742 172.985C263.814 168.097 265 161.183 265 156L213 156M382 156L382 214C382 221.289 379.956 232.348 383.457 238.957C387.941 247.422 402.517 251.109 411 253.717C438.335 262.12 468.452 266 497 266C497 228.097 485.819 193.315 481 156L382 156z"/>
<path style="fill:#010101; stroke:none;" d="M371.044 278.742C365.611 280.956 364.485 288.673 369.228 292.258C373.281 295.321 385.367 295.128 389.956 293.258C395.389 291.044 396.515 283.327 391.772 279.742C387.719 276.679 375.633 276.872 371.044 278.742z"/>
<path style="fill:#ffffff; stroke:none;" d="M89 319.518C47.32 328.424 61.7857 394.124 103 385.331C146.667 376.015 132.282 310.27 89 319.518M408 319.468C366.677 327.264 378.806 392.815 420 385.536C464.338 377.702 452.091 311.149 408 319.468z"/>
</svg>
