<?xml version="1.0" standalone="no"?>
<!DOCTYPE svg PUBLIC "-//W3C//DTD SVG 20010904//EN"
 "http://www.w3.org/TR/2001/REC-SVG-20010904/DTD/svg10.dtd">
<svg version="1.0" xmlns="http://www.w3.org/2000/svg"
 width="512.000000pt" height="512.000000pt" viewBox="0 0 512.000000 512.000000"
 preserveAspectRatio="xMidYMid meet">

<g transform="translate(0.000000,512.000000) scale(0.100000,-0.100000)"
fill="#000000" stroke="none">
<path d="M2325 4869 c-494 -47 -994 -278 -1362 -628 -94 -90 -104 -120 -58
-166 44 -45 73 -35 181 63 258 234 529 390 847 486 568 172 1195 98 1705 -200
801 -469 1208 -1380 1026 -2294 -84 -422 -296 -806 -616 -1115 -144 -139 -239
-212 -406 -312 -695 -413 -1598 -388 -2273 63 -513 342 -831 834 -941 1453
-32 183 -32 510 1 694 43 246 115 453 232 674 32 61 59 121 59 133 0 33 -44
70 -84 70 -28 0 -40 -7 -59 -32 -93 -124 -224 -442 -277 -672 -44 -192 -55
-294 -55 -526 0 -241 12 -344 62 -550 185 -766 757 -1391 1503 -1644 842 -285
1757 -74 2386 550 705 701 883 1773 443 2670 -424 864 -1345 1374 -2314 1283z"/>
<path d="M2338 4225 c-917 -125 -1563 -966 -1443 -1878 96 -736 640 -1304
1380 -1443 136 -26 440 -26 570 -1 341 67 628 210 864 432 64 61 71 71 71 105
0 30 -6 43 -26 59 -48 38 -74 29 -170 -59 -459 -420 -1127 -515 -1687 -240
-424 209 -717 589 -819 1064 -29 137 -32 435 -5 571 123 611 573 1072 1180
1206 118 26 390 37 509 20 517 -75 946 -387 1167 -851 59 -124 93 -226 123
-364 29 -136 31 -417 5 -551 -24 -121 -61 -240 -108 -349 -46 -106 -48 -128
-14 -161 26 -27 63 -32 97 -14 42 22 134 263 175 458 24 112 27 148 27 326 0
218 -11 304 -65 487 -232 784 -1020 1293 -1831 1183z"/>
<path d="M2185 3575 l-25 -24 0 -296 0 -295 -295 0 -296 0 -24 -25 -25 -24 0
-351 0 -351 25 -24 24 -25 296 0 295 0 0 -295 0 -296 25 -24 24 -25 351 0 351
0 24 25 25 24 0 296 0 295 295 0 296 0 24 25 25 24 0 351 0 351 -25 24 -24 25
-336 0 -335 0 0 120 c0 102 2 120 15 120 9 0 27 11 40 25 24 23 25 28 25 175
0 147 -1 152 -25 175 l-24 25 -351 0 -351 0 -24 -25z"/>
</g>
</svg>
