<?xml version="1.0" standalone="no"?>
<!DOCTYPE svg PUBLIC "-//W3C//DTD SVG 20010904//EN"
 "http://www.w3.org/TR/2001/REC-SVG-20010904/DTD/svg10.dtd">
<svg version="1.0" xmlns="http://www.w3.org/2000/svg"
 width="512.000000pt" height="512.000000pt" viewBox="0 0 512.000000 512.000000"
 preserveAspectRatio="xMidYMid meet">

<g transform="translate(0.000000,512.000000) scale(0.100000,-0.100000)"
fill="#000000" stroke="none">
<path d="M1171 5104 c-175 -47 -318 -198 -351 -373 -6 -31 -10 -234 -10 -486
l0 -433 -56 -42 c-96 -72 -182 -209 -215 -340 -11 -45 -14 -210 -14 -873 l0
-819 28 -24 c34 -29 67 -31 98 -5 l24 19 5 839 5 838 23 54 c60 141 170 240
307 275 52 14 235 16 1550 16 1332 0 1497 -2 1546 -16 137 -40 252 -147 306
-284 14 -38 18 -93 23 -348 l5 -304 24 -19 c50 -40 114 -12 127 57 3 19 4 153
2 297 -5 250 -6 266 -32 345 -35 108 -112 221 -194 287 l-62 49 0 432 c0 251
-4 454 -10 485 -34 177 -177 327 -355 374 -86 22 -2690 22 -2774 -1z m2791
-161 c67 -31 129 -92 164 -160 l29 -58 3 -423 c3 -416 3 -424 -17 -417 -71 22
-246 25 -1581 25 -1335 0 -1510 -3 -1581 -25 -20 -7 -20 1 -17 417 l3 423 28
55 c48 93 128 158 221 181 17 4 632 6 1366 6 l1335 -2 47 -22z"/>
<path d="M2092 4788 c-190 -29 -329 -225 -292 -412 17 -86 50 -145 114 -204
79 -72 146 -95 256 -90 141 7 241 72 302 196 30 61 33 74 33 162 0 89 -2 99
-34 158 -78 144 -219 214 -379 190z m174 -180 c163 -111 102 -360 -91 -376
-74 -6 -134 18 -179 70 -90 104 -57 257 69 322 18 9 56 16 91 16 53 0 68 -5
110 -32z"/>
<path d="M2583 4793 c-43 -8 -66 -69 -43 -113 11 -21 60 -40 106 -40 l33 0 3
-259 c3 -238 5 -261 22 -280 25 -27 79 -28 106 -1 19 19 20 33 20 280 l0 260
40 0 c88 0 132 41 116 106 -11 44 -56 54 -228 53 -84 -1 -163 -4 -175 -6z"/>
<path d="M3663 4792 c-51 -8 -53 -22 -53 -359 0 -386 -16 -353 173 -353 146 0
158 4 172 62 6 22 1 33 -23 58 -28 28 -36 30 -101 30 l-71 0 0 254 c0 237 -1
255 -20 278 -21 28 -42 36 -77 30z"/>
<path d="M1180 4763 c-20 -26 -21 -34 -18 -334 3 -285 4 -308 22 -328 25 -27
79 -28 106 -1 18 18 20 33 20 145 l0 125 125 0 125 0 0 -125 c0 -112 2 -127
20 -145 30 -30 83 -27 109 6 20 26 21 38 21 329 0 291 -1 303 -21 329 -16 20
-29 26 -59 26 -60 0 -70 -22 -70 -157 l0 -113 -125 0 -125 0 0 113 c0 135 -10
157 -70 157 -30 0 -43 -6 -60 -27z"/>
<path d="M3125 4765 l-25 -24 0 -304 c0 -293 1 -305 21 -331 l20 -26 154 0
154 0 20 26 c34 43 26 86 -20 109 -18 10 -58 15 -114 15 l-85 0 0 65 0 65 88
0 c80 0 91 2 110 23 31 33 29 80 -4 106 -22 17 -41 21 -110 21 l-84 0 0 65 0
65 95 0 c88 0 98 2 120 25 14 13 25 36 25 50 0 14 -11 37 -25 50 -23 24 -28
25 -170 25 -142 0 -147 -1 -170 -25z"/>
<path d="M1136 3314 c-68 -21 -139 -94 -160 -165 -22 -74 -23 -522 -1 -595 19
-64 60 -113 126 -149 l54 -30 175 0 c152 0 180 2 210 19 64 34 95 63 125 117
l30 54 0 285 0 285 -27 51 c-34 64 -88 110 -152 129 -68 20 -312 19 -380 -1z
m338 -148 c65 -27 66 -32 66 -319 l0 -259 -29 -29 -29 -29 -152 0 -152 0 -28
28 c-38 38 -42 74 -38 334 l3 217 29 30 c34 35 46 38 189 40 72 1 119 -4 141
-13z"/>
<path d="M2366 3314 c-32 -10 -64 -31 -96 -63 -74 -74 -80 -105 -80 -400 0
-137 5 -262 10 -283 18 -63 70 -129 130 -162 l55 -31 175 0 175 0 55 31 c60
33 112 99 130 162 5 21 10 146 10 283 0 295 -6 326 -80 399 -66 67 -115 80
-294 79 -95 0 -157 -5 -190 -15z m368 -163 c40 -37 46 -79 46 -301 0 -320 0
-320 -222 -320 l-150 0 -28 28 c-38 38 -42 75 -38 329 3 196 5 214 24 240 32
44 73 53 216 50 118 -2 128 -4 152 -26z"/>
<path d="M3600 3315 c-61 -19 -115 -66 -148 -129 l-27 -51 0 -285 0 -285 30
-54 c30 -54 61 -83 125 -117 30 -17 58 -19 210 -19 l175 0 54 30 c66 36 107
85 126 149 22 73 21 521 -1 595 -21 73 -92 144 -165 165 -69 21 -313 21 -379
1z m372 -173 l33 -32 3 -233 c5 -349 7 -347 -220 -347 l-150 0 -29 29 -29 29
0 260 c0 247 1 261 21 286 29 37 68 45 211 43 l128 -2 32 -33z"/>
<path d="M4469 2591 l-24 -19 -3 -876 -2 -876 -650 0 -649 0 -3 478 c-3 465
-4 478 -25 524 -29 63 -96 134 -158 166 l-50 27 -345 0 -345 0 -50 -27 c-62
-32 -129 -103 -158 -166 -21 -46 -22 -59 -25 -524 l-3 -478 -649 0 -650 0 0
334 c0 322 -1 334 -21 360 -22 28 -64 35 -99 16 -36 -19 -40 -63 -40 -404 l0
-331 -45 -19 c-63 -26 -136 -95 -173 -164 -40 -75 -56 -175 -50 -318 5 -98 9
-117 34 -164 16 -29 42 -63 59 -76 76 -58 -68 -54 2215 -54 2282 0 2137 -4
2214 55 18 14 45 48 61 76 24 46 28 65 33 163 6 143 -10 243 -50 318 -37 69
-110 138 -173 164 l-45 19 0 866 c0 606 -3 876 -11 898 -18 53 -76 68 -120 32z
m139 -1964 c23 -15 54 -46 69 -69 27 -40 28 -46 31 -198 l3 -157 -31 -27 -32
-26 -2093 2 -2093 3 -27 25 -26 25 3 157 c3 155 3 157 33 200 20 28 49 53 85
71 l54 27 1991 -2 1991 -3 42 -28z"/>
<path d="M1120 1999 c-55 -25 -105 -71 -133 -124 -21 -38 -22 -52 -22 -330 0
-280 1 -291 22 -331 28 -53 105 -121 152 -134 52 -14 335 -13 385 2 63 19 140
100 160 167 22 76 23 513 1 587 -19 65 -76 131 -139 160 -47 22 -64 24 -216
24 -144 0 -171 -3 -210 -21z m363 -140 c56 -29 57 -33 57 -312 0 -159 -4 -266
-10 -278 -22 -39 -61 -49 -202 -49 -157 0 -189 12 -207 77 -14 50 -14 446 0
496 18 65 50 77 207 77 79 0 142 -5 155 -11z"/>
<path d="M3575 1996 c-27 -12 -67 -41 -87 -64 -60 -67 -68 -110 -68 -387 0
-277 8 -320 68 -387 20 -23 60 -52 87 -64 46 -22 63 -24 210 -24 88 0 176 5
196 10 47 13 124 81 152 134 21 40 22 51 22 331 0 280 -1 291 -22 331 -29 54
-101 117 -151 132 -23 7 -105 12 -198 12 -145 0 -163 -2 -209 -24z m382 -146
c21 -13 35 -31 42 -57 14 -50 14 -446 0 -496 -18 -65 -50 -77 -207 -77 -141 0
-180 10 -202 49 -6 12 -10 119 -10 278 1 334 -7 322 210 323 116 0 139 -3 167
-20z"/>
</g>
</svg>
