<?xml version="1.0" standalone="no"?>
<!DOCTYPE svg PUBLIC "-//W3C//DTD SVG 20010904//EN"
 "http://www.w3.org/TR/2001/REC-SVG-20010904/DTD/svg10.dtd">
<svg version="1.0" xmlns="http://www.w3.org/2000/svg"
 width="512.000000pt" height="512.000000pt" viewBox="0 0 512.000000 512.000000"
 preserveAspectRatio="xMidYMid meet">

<g transform="translate(0.000000,512.000000) scale(0.100000,-0.100000)"
fill="#000000" stroke="none">
<path d="M1795 5089 c-17 -5 -78 -57 -145 -124 l-116 -115 -169 71 c-94 39
-195 77 -225 85 -124 32 -262 4 -365 -76 -29 -22 -107 -96 -173 -164 -137
-141 -157 -178 -150 -275 3 -43 12 -71 32 -101 26 -40 295 -244 1474 -1122
l252 -188 -271 -312 c-149 -172 -278 -323 -286 -336 -22 -32 -19 -69 7 -98 25
-26 50 -30 81 -13 11 5 410 461 888 1012 477 551 901 1033 941 1070 202 187
458 321 725 382 119 27 331 47 375 35 46 -13 95 -51 116 -92 20 -39 20 -143
-1 -281 -35 -237 -100 -415 -227 -624 -42 -69 -49 -87 -43 -113 9 -41 62 -69
99 -52 64 29 205 301 270 522 52 177 86 443 67 529 -23 108 -91 194 -187 238
-75 34 -137 38 -299 18 -228 -27 -389 -73 -580 -166 -225 -109 -397 -247 -613
-494 -58 -66 -109 -121 -113 -123 -4 -2 -97 35 -208 81 -180 75 -200 85 -185
98 25 20 54 89 54 127 0 54 -25 94 -118 185 -150 146 -197 144 -359 -16 l-102
-100 -93 38 c-51 21 -95 40 -97 42 -3 2 9 18 27 36 55 57 75 131 51 194 -15
40 -167 192 -214 214 -43 20 -73 22 -120 8z m280 -624 c528 -219 964 -401 968
-405 8 -7 -714 -851 -734 -858 -10 -4 -1654 1220 -1686 1255 -15 16 -23 37
-23 60 0 33 11 48 133 169 161 162 205 187 312 181 66 -3 126 -27 1030 -402z"/>
<path d="M3922 4494 c-25 -12 -43 -61 -32 -90 15 -38 37 -51 95 -60 178 -24
293 -133 331 -315 19 -90 26 -104 62 -117 36 -12 87 7 97 38 9 30 -3 120 -25
184 -58 171 -157 271 -326 332 -63 23 -177 39 -202 28z"/>
<path d="M4314 3517 c-11 -7 -509 -436 -1106 -954 -598 -518 -1128 -976 -1180
-1019 -275 -229 -595 -440 -889 -584 -90 -45 -110 -51 -149 -47 -71 8 -109 61
-100 142 3 25 74 167 158 315 121 214 255 411 430 630 74 92 83 108 78 135 -7
37 -39 65 -74 65 -31 0 -80 -49 -192 -194 -45 -58 -86 -106 -91 -106 -5 0
-163 70 -352 155 -188 85 -365 159 -394 165 -62 14 -144 1 -212 -32 -56 -27
-203 -166 -225 -213 -9 -18 -16 -45 -16 -60 0 -69 19 -87 414 -383 210 -157
383 -286 385 -288 2 -2 -11 -36 -29 -76 -58 -128 -42 -245 45 -333 84 -84 204
-101 322 -46 36 17 70 31 77 31 6 -1 137 -170 291 -376 154 -207 291 -384 305
-394 35 -25 89 -34 125 -20 42 16 202 176 230 231 13 25 27 67 32 95 17 99 4
140 -142 464 -76 168 -148 328 -161 356 l-23 51 67 49 c101 74 208 164 681
574 238 206 436 376 439 377 4 1 284 -369 622 -823 338 -454 630 -844 649
-865 46 -55 103 -82 171 -82 91 0 129 24 292 189 123 125 152 161 180 219 31
66 33 76 33 180 l0 110 -72 170 -72 170 114 116 c190 192 193 241 23 405 -79
76 -102 93 -136 99 -61 10 -97 -2 -159 -52 -30 -24 -56 -43 -58 -41 -7 7 -85
201 -85 211 0 6 40 52 89 101 97 100 117 140 102 208 -11 48 -34 79 -119 161
-105 101 -161 117 -245 73 l-45 -24 -20 46 c-24 57 -141 338 -152 368 -7 18 8
36 117 129 68 59 129 118 133 131 6 14 5 35 -1 54 -17 47 -61 63 -105 37z
m135 -1415 c372 -897 405 -983 409 -1045 7 -109 -10 -140 -162 -296 -137 -139
-177 -168 -219 -152 -25 10 -1289 1691 -1291 1718 -1 10 839 751 854 752 3 0
187 -439 409 -977z m-3674 -179 c176 -79 323 -148 328 -152 4 -4 -29 -66 -74
-137 -44 -71 -96 -157 -116 -191 -19 -35 -37 -63 -41 -63 -11 0 -712 530 -712
539 0 12 110 115 140 131 38 21 82 29 120 23 19 -2 179 -70 355 -150z m1126
-1123 c187 -414 188 -427 55 -559 l-64 -63 -269 359 -270 359 106 61 c58 34
147 89 196 121 56 36 92 55 96 48 4 -6 71 -153 150 -326z"/>
</g>
</svg>
