<?xml version="1.0" standalone="no"?>
<!DOCTYPE svg PUBLIC "-//W3C//DTD SVG 20010904//EN"
 "http://www.w3.org/TR/2001/REC-SVG-20010904/DTD/svg10.dtd">
<svg version="1.0" xmlns="http://www.w3.org/2000/svg"
 width="512.000000pt" height="512.000000pt" viewBox="0 0 512.000000 512.000000"
 preserveAspectRatio="xMidYMid meet">
<metadata>
Created by potrace 1.16, written by Peter Selinger 2001-2019
</metadata>
<g transform="translate(0.000000,512.000000) scale(0.100000,-0.100000)"
fill="#000000" stroke="none">
<path d="M1640 3514 c-189 -29 -271 -59 -600 -220 -339 -166 -380 -179 -686
-218 -208 -27 -251 -40 -299 -98 -54 -63 -55 -74 -55 -401 0 -351 3 -365 81
-451 59 -65 91 -79 318 -142 l173 -49 35 -69 c83 -164 248 -266 427 -266 86 1
141 13 213 46 58 28 163 118 190 165 l17 29 1146 0 1146 0 17 -29 c27 -47 132
-137 190 -165 70 -33 127 -45 207 -46 190 0 355 104 437 277 34 69 38 88 41
174 7 155 -37 271 -139 371 -233 228 -628 159 -768 -135 -35 -73 -56 -181 -47
-243 l6 -44 -1090 0 -1090 0 6 44 c24 170 -95 380 -261 462 -287 142 -629 -22
-687 -329 -7 -37 -17 -67 -23 -67 -5 0 -77 20 -158 44 -213 62 -228 80 -235
279 l-4 127 50 0 c28 0 62 5 76 11 48 22 53 101 8 135 -9 8 -43 14 -74 14
l-58 0 0 45 c0 54 21 110 47 123 10 5 63 15 118 21 311 37 381 52 543 118
l113 45 98 -95 c148 -143 231 -177 442 -177 141 0 164 11 164 80 0 68 -24 80
-157 80 -99 0 -109 2 -104 18 3 9 21 89 41 177 20 88 38 161 40 163 2 3 30 11
62 20 42 11 132 16 331 19 l272 5 0 -201 0 -201 -135 0 c-131 0 -137 -1 -160
-25 -16 -15 -25 -36 -25 -55 0 -19 9 -40 25 -55 l24 -25 948 0 c935 0 1099 -4
1333 -35 254 -34 510 -99 640 -163 l75 -37 -50 -3 c-27 -1 -60 -7 -72 -14 -30
-15 -45 -61 -32 -95 17 -45 37 -52 136 -53 91 0 93 0 99 -26 4 -14 4 -87 2
-162 -6 -171 -23 -212 -88 -212 -25 0 -68 -40 -71 -65 -3 -40 1 -55 21 -75 47
-47 183 -7 239 71 48 65 53 99 49 343 -3 218 -3 222 -31 277 -40 82 -96 141
-174 182 -223 116 -619 198 -1083 223 l-125 7 -312 198 c-371 236 -411 259
-528 298 -171 57 -220 61 -734 60 -256 -1 -477 -3 -491 -5z m1095 -183 c114
-30 217 -82 437 -222 106 -67 202 -128 213 -135 16 -12 -63 -14 -523 -14
l-542 0 0 201 0 201 168 -5 c127 -3 186 -9 247 -26z m-1428 -103 c-2 -7 -14
-57 -27 -112 l-22 -99 -66 66 c-36 37 -64 68 -62 70 9 9 165 86 174 87 4 0 6
-6 3 -12z m-132 -862 c79 -39 140 -112 166 -198 35 -114 11 -213 -72 -303
-150 -163 -407 -130 -514 66 -40 74 -46 179 -15 262 35 93 125 172 225 198 55
15 152 3 210 -25z m3121 3 c69 -33 138 -106 164 -176 47 -124 11 -266 -88
-354 -191 -168 -494 -49 -528 208 -14 108 53 243 152 304 88 54 207 61 300 18z"/>
<path d="M1065 2210 c-11 -4 -53 -42 -92 -83 -58 -59 -73 -81 -73 -105 0 -47
30 -77 80 -77 38 0 47 6 116 76 64 66 74 81 74 112 0 58 -54 98 -105 77z"/>
<path d="M4083 2213 c-31 -6 -53 -40 -53 -81 0 -29 11 -46 74 -111 69 -70 78
-76 116 -76 50 0 80 30 80 77 0 25 -15 46 -77 109 -78 78 -99 90 -140 82z"/>
<path d="M1705 2295 c-35 -34 -34 -86 1 -114 27 -21 32 -21 894 -21 862 0 867
0 894 21 35 28 36 80 1 114 l-24 25 -871 0 -871 0 -24 -25z"/>
</g>
</svg>
