<?xml version="1.0" standalone="no"?>
<!DOCTYPE svg PUBLIC "-//W3C//DTD SVG 20010904//EN"
 "http://www.w3.org/TR/2001/REC-SVG-20010904/DTD/svg10.dtd">
<svg version="1.0" xmlns="http://www.w3.org/2000/svg"
 width="512.000000pt" height="512.000000pt" viewBox="0 0 512.000000 512.000000"
 preserveAspectRatio="xMidYMid meet">

<g transform="translate(0.000000,512.000000) scale(0.100000,-0.100000)"
fill="#000000" stroke="none">
<path d="M2757 4069 c-10 -6 -51 -77 -92 -160 l-75 -149 -190 0 -191 0 -47
-43 c-26 -24 -222 -203 -436 -397 l-390 -354 -148 -13 c-313 -26 -492 -97
-697 -273 -107 -92 -184 -203 -225 -322 -9 -27 -34 -155 -55 -285 -31 -181
-44 -240 -57 -248 -65 -40 -94 -69 -119 -119 -55 -112 -17 -245 89 -311 47
-28 56 -30 173 -34 136 -3 167 6 179 54 6 26 34 35 34 11 0 -37 76 -161 134
-219 111 -111 235 -162 396 -162 161 0 285 51 396 162 58 58 134 182 134 219
0 8 7 14 15 14 8 0 15 -7 15 -15 0 -9 11 -27 25 -40 l24 -25 751 0 751 0 24
25 c14 13 25 31 25 40 0 8 7 15 15 15 8 0 15 -6 15 -14 0 -37 76 -161 134
-219 111 -111 235 -162 396 -162 161 0 285 51 396 162 58 58 134 182 134 219
0 24 28 15 34 -11 14 -54 29 -56 338 -53 253 3 287 5 318 22 49 26 88 64 113
111 41 77 21 216 -37 264 -14 12 -16 45 -16 223 0 208 0 209 -25 233 -20 21
-34 25 -79 25 l-54 0 -4 248 -3 248 -37 76 c-45 91 -104 148 -196 191 -57 27
-79 31 -173 35 l-108 5 -232 349 c-128 192 -241 354 -250 359 -10 5 -101 9
-203 9 l-186 0 -75 150 c-41 82 -83 154 -94 160 -26 14 -540 13 -564 -1z m513
-229 l40 -80 -270 0 -270 0 40 80 40 80 190 0 190 0 40 -80z m-710 -560 l0
-320 -492 0 -493 0 35 34 c19 19 177 163 350 320 l315 286 143 0 142 0 0 -320z
m1022 5 c103 -170 188 -313 188 -317 0 -5 -236 -8 -525 -8 l-525 0 0 320 0
320 337 -2 338 -3 187 -310z m451 -40 c173 -259 243 -356 260 -359 12 -3 74
-7 137 -9 126 -3 170 -18 221 -74 63 -67 64 -72 69 -391 l5 -294 24 -19 c16
-13 39 -19 77 -19 l54 0 0 -120 0 -120 -255 0 -256 0 -24 -25 c-14 -13 -25
-31 -25 -40 0 -33 -19 -11 -60 71 -206 417 -794 417 -1000 0 -41 -82 -60 -104
-60 -71 0 9 -11 27 -25 40 l-24 25 -751 0 -751 0 -24 -25 c-14 -13 -25 -31
-25 -40 0 -33 -19 -11 -60 71 -206 417 -794 417 -1000 0 -41 -82 -60 -104 -60
-71 0 9 -11 27 -25 40 -18 19 -35 25 -70 25 -26 0 -45 5 -45 11 0 44 74 438
91 481 31 81 87 156 174 231 137 119 253 174 446 213 76 16 219 18 1497 23
l1414 6 19 24 c10 13 19 35 19 49 0 17 -77 155 -205 369 -113 188 -205 344
-205 347 0 3 46 6 103 6 l103 0 237 -355z m-2874 -1271 c104 -33 192 -112 239
-212 24 -50 27 -69 27 -162 0 -93 -3 -112 -27 -162 -95 -202 -334 -287 -533
-189 -111 55 -198 174 -214 294 -37 289 233 519 508 431z m2720 0 c104 -33
192 -112 239 -212 24 -50 27 -69 27 -162 0 -93 -3 -112 -27 -162 -95 -202
-334 -287 -533 -189 -111 55 -198 174 -214 294 -37 289 233 519 508 431z"/>
<path d="M1545 2535 c-16 -15 -25 -36 -25 -55 0 -51 38 -80 105 -80 l55 0 0
-135 c0 -131 1 -137 25 -160 15 -16 36 -25 55 -25 19 0 40 9 55 25 24 23 25
29 25 160 l0 135 55 0 c67 0 105 29 105 80 0 19 -9 40 -25 55 -24 25 -26 25
-215 25 -189 0 -191 0 -215 -25z"/>
<path d="M2145 2536 c-60 -28 -97 -66 -124 -126 -17 -37 -21 -66 -21 -163 0
-112 1 -119 25 -142 32 -33 78 -33 110 0 14 13 25 31 25 40 0 12 15 15 80 15
65 0 80 -3 80 -15 0 -27 47 -65 80 -65 19 0 40 9 55 25 24 23 25 30 25 142 0
103 -3 124 -24 168 -59 125 -193 177 -311 121z m128 -147 c21 -9 47 -46 47
-64 0 -3 -36 -5 -80 -5 -44 0 -80 2 -80 5 0 17 26 55 44 63 28 14 40 14 69 1z"/>
<path d="M2585 2535 c-43 -42 -34 -77 37 -151 l61 -64 -61 -64 c-71 -74 -80
-109 -37 -151 42 -43 77 -34 151 37 l64 61 64 -61 c74 -71 109 -80 151 -37 43
42 34 77 -37 151 l-61 64 61 64 c71 74 80 109 37 151 -42 43 -77 34 -151 -37
l-64 -61 -64 61 c-74 71 -109 80 -151 37z"/>
<path d="M3145 2535 c-25 -24 -25 -26 -25 -215 0 -189 0 -191 25 -215 15 -16
36 -25 55 -25 19 0 40 9 55 25 25 24 25 26 25 215 0 189 0 191 -25 215 -15 16
-36 25 -55 25 -19 0 -40 -9 -55 -25z"/>
<path d="M3760 2480 l0 -80 80 0 80 0 0 -80 0 -80 80 0 80 0 0 80 0 80 80 0
80 0 0 -80 0 -80 80 0 80 0 0 80 0 80 80 0 80 0 0 80 0 80 -80 0 -80 0 0 -80
0 -80 -80 0 -80 0 0 80 0 80 -80 0 -80 0 0 -80 0 -80 -80 0 -80 0 0 80 0 80
-80 0 -80 0 0 -80z"/>
<path d="M560 2320 l0 -80 80 0 80 0 0 80 0 80 -80 0 -80 0 0 -80z"/>
<path d="M927 1905 c-88 -33 -172 -122 -197 -209 -18 -66 -9 -181 18 -238 30
-60 90 -120 150 -150 68 -33 216 -33 284 0 103 51 170 150 176 263 4 58 1 70
-17 88 -26 26 -81 28 -111 3 -15 -12 -25 -35 -31 -71 -15 -96 -88 -158 -175
-148 -87 9 -151 89 -141 175 9 77 61 127 147 141 63 10 90 36 90 87 0 53 -28
74 -97 73 -32 0 -75 -7 -96 -14z"/>
<path d="M3647 1905 c-88 -33 -172 -122 -197 -209 -18 -66 -9 -181 18 -238 30
-60 90 -120 150 -150 68 -33 216 -33 284 0 103 51 170 150 176 263 4 58 1 70
-17 88 -26 26 -81 28 -111 3 -15 -12 -25 -35 -31 -71 -15 -96 -88 -158 -175
-148 -87 9 -151 89 -141 175 9 77 61 127 147 141 63 10 90 36 90 87 0 53 -28
74 -97 73 -32 0 -75 -7 -96 -14z"/>
</g>
</svg>
