<svg width="859" height="81" viewBox="0 0 859 81" fill="none" xmlns="http://www.w3.org/2000/svg">
<path d="M14.4747 27.248H0.71474V17.2H40.8427V27.248H27.1467V62H14.4747V27.248ZM83.0202 27.312V62H71.4362V58.288C70.1562 59.696 68.6202 60.7627 66.8282 61.488C65.0362 62.2133 63.1376 62.576 61.1322 62.576C56.6522 62.576 53.0682 61.2533 50.3802 58.608C47.7349 55.9627 46.4122 51.9947 46.4122 46.704V27.312H58.5722V44.72C58.5722 47.3227 59.0629 49.2213 60.0442 50.416C61.0256 51.6107 62.4549 52.208 64.3322 52.208C66.2522 52.208 67.8096 51.5467 69.0042 50.224C70.2416 48.8587 70.8602 46.7893 70.8602 44.016V27.312H83.0202ZM150.502 27.312L136.166 62H123.622L109.35 27.312H121.83L130.15 48.496L138.918 27.312H150.502ZM155.885 27.312H168.045V62H155.885V27.312ZM161.965 23.472C159.747 23.472 157.955 22.8533 156.589 21.616C155.224 20.3787 154.541 18.8427 154.541 17.008C154.541 15.1733 155.224 13.6373 156.589 12.4C157.955 11.1627 159.747 10.544 161.965 10.544C164.184 10.544 165.976 11.1413 167.341 12.336C168.707 13.488 169.389 14.9813 169.389 16.816C169.389 18.736 168.707 20.336 167.341 21.616C165.976 22.8533 164.184 23.472 161.965 23.472ZM192.972 26.736C198.732 26.736 203.126 28.0587 206.156 30.704C209.185 33.3067 210.7 37.3173 210.7 42.736V62H199.372V57.52C197.622 60.8907 194.209 62.576 189.132 62.576C186.444 62.576 184.118 62.1067 182.156 61.168C180.193 60.2293 178.7 58.9707 177.676 57.392C176.694 55.7707 176.204 53.936 176.204 51.888C176.204 48.6027 177.462 46.064 179.98 44.272C182.497 42.4373 186.38 41.52 191.628 41.52H198.54C198.326 37.8507 195.873 36.016 191.18 36.016C189.516 36.016 187.83 36.2933 186.124 36.848C184.417 37.36 182.966 38.0853 181.772 39.024L177.676 30.768C179.596 29.488 181.921 28.5067 184.652 27.824C187.425 27.0987 190.198 26.736 192.972 26.736ZM192.524 54.896C193.932 54.896 195.169 54.5547 196.236 53.872C197.302 53.1893 198.07 52.1867 198.54 50.864V47.856H193.292C189.75 47.856 187.98 49.0293 187.98 51.376C187.98 52.4427 188.385 53.296 189.196 53.936C190.006 54.576 191.116 54.896 192.524 54.896ZM219.143 74.992C215.602 74.992 212.786 74.3947 210.695 73.2L213.767 64.56C214.877 65.2427 216.135 65.584 217.543 65.584C218.653 65.584 219.527 65.2 220.167 64.432C220.807 63.664 221.127 62.5333 221.127 61.04V27.312H233.287V61.104C233.287 65.3707 232.029 68.7413 229.511 71.216C227.037 73.7333 223.581 74.992 219.143 74.992ZM227.207 23.472C224.989 23.472 223.197 22.8533 221.831 21.616C220.466 20.3787 219.783 18.8427 219.783 17.008C219.783 15.1733 220.466 13.6373 221.831 12.4C223.197 11.1627 224.989 10.544 227.207 10.544C229.426 10.544 231.218 11.1413 232.583 12.336C233.949 13.488 234.631 14.9813 234.631 16.816C234.631 18.736 233.949 20.336 232.583 21.616C231.218 22.8533 229.426 23.472 227.207 23.472ZM278.811 44.72C278.811 44.8053 278.747 45.808 278.619 47.728H253.403C253.915 49.52 254.897 50.9067 256.347 51.888C257.841 52.8267 259.697 53.296 261.915 53.296C263.579 53.296 265.009 53.0613 266.203 52.592C267.441 52.1227 268.678 51.3547 269.915 50.288L276.315 56.944C272.945 60.6987 268.017 62.576 261.531 62.576C257.478 62.576 253.915 61.808 250.843 60.272C247.771 58.736 245.382 56.6027 243.675 53.872C242.011 51.1413 241.179 48.048 241.179 44.592C241.179 41.1787 241.99 38.128 243.611 35.44C245.275 32.7093 247.558 30.576 250.459 29.04C253.361 27.504 256.625 26.736 260.251 26.736C263.707 26.736 266.843 27.4613 269.659 28.912C272.475 30.32 274.694 32.3893 276.315 35.12C277.979 37.808 278.811 41.008 278.811 44.72ZM260.315 35.376C258.438 35.376 256.859 35.9093 255.579 36.976C254.342 38.0427 253.553 39.4933 253.211 41.328H267.419C267.078 39.4933 266.267 38.0427 264.987 36.976C263.75 35.9093 262.193 35.376 260.315 35.376ZM325.251 62.576C321.411 62.576 317.976 61.808 314.947 60.272C311.917 58.736 309.549 56.6027 307.843 53.872C306.179 51.1413 305.347 48.048 305.347 44.592C305.347 41.136 306.179 38.064 307.843 35.376C309.549 32.6453 311.917 30.5333 314.947 29.04C317.976 27.504 321.411 26.736 325.251 26.736C329.176 26.736 332.568 27.5893 335.427 29.296C338.285 30.96 340.312 33.2853 341.507 36.272L332.099 41.072C330.52 37.9573 328.216 36.4 325.187 36.4C323.011 36.4 321.197 37.1253 319.747 38.576C318.339 40.0267 317.635 42.032 317.635 44.592C317.635 47.1947 318.339 49.2427 319.747 50.736C321.197 52.1867 323.011 52.912 325.187 52.912C328.216 52.912 330.52 51.3547 332.099 48.24L341.507 53.04C340.312 56.0267 338.285 58.3733 335.427 60.08C332.568 61.744 329.176 62.576 325.251 62.576ZM365.358 62.576C361.646 62.576 358.297 61.808 355.31 60.272C352.324 58.736 349.977 56.6027 348.27 53.872C346.606 51.1413 345.774 48.048 345.774 44.592C345.774 41.1787 346.606 38.1067 348.27 35.376C349.977 32.6453 352.302 30.5333 355.246 29.04C358.233 27.504 361.604 26.736 365.358 26.736C369.113 26.736 372.484 27.504 375.47 29.04C378.457 30.5333 380.782 32.6453 382.446 35.376C384.11 38.064 384.942 41.136 384.942 44.592C384.942 48.048 384.11 51.1413 382.446 53.872C380.782 56.6027 378.457 58.736 375.47 60.272C372.484 61.808 369.113 62.576 365.358 62.576ZM365.358 52.912C367.492 52.912 369.241 52.1867 370.606 50.736C371.972 49.2427 372.654 47.1947 372.654 44.592C372.654 42.032 371.972 40.0267 370.606 38.576C369.241 37.1253 367.492 36.4 365.358 36.4C363.225 36.4 361.476 37.1253 360.11 38.576C358.745 40.0267 358.062 42.032 358.062 44.592C358.062 47.1947 358.745 49.2427 360.11 50.736C361.476 52.1867 363.225 52.912 365.358 52.912ZM437.999 26.736C442.266 26.736 445.658 28.016 448.175 30.576C450.735 33.136 452.015 36.9973 452.015 42.16V62H439.855V44.144C439.855 41.712 439.386 39.92 438.447 38.768C437.551 37.616 436.271 37.04 434.607 37.04C432.773 37.04 431.301 37.68 430.191 38.96C429.082 40.24 428.527 42.1813 428.527 44.784V62H416.367V44.144C416.367 39.408 414.618 37.04 411.119 37.04C409.242 37.04 407.749 37.68 406.639 38.96C405.53 40.24 404.975 42.1813 404.975 44.784V62H392.815V27.312H404.399V30.96C405.679 29.552 407.194 28.5067 408.943 27.824C410.735 27.0987 412.677 26.736 414.767 26.736C417.199 26.736 419.375 27.184 421.295 28.08C423.215 28.976 424.773 30.3413 425.967 32.176C427.333 30.4267 429.061 29.0827 431.151 28.144C433.242 27.2053 435.525 26.736 437.999 26.736ZM461.93 27.312H474.09V62H461.93V27.312ZM468.01 23.472C465.792 23.472 464 22.8533 462.634 21.616C461.269 20.3787 460.586 18.8427 460.586 17.008C460.586 15.1733 461.269 13.6373 462.634 12.4C464 11.1627 465.792 10.544 468.01 10.544C470.229 10.544 472.021 11.1413 473.386 12.336C474.752 13.488 475.434 14.9813 475.434 16.816C475.434 18.736 474.752 20.336 473.386 21.616C472.021 22.8533 470.229 23.472 468.01 23.472ZM519.689 44.72C519.689 44.8053 519.625 45.808 519.497 47.728H494.281C494.793 49.52 495.774 50.9067 497.225 51.888C498.718 52.8267 500.574 53.296 502.793 53.296C504.457 53.296 505.886 53.0613 507.081 52.592C508.318 52.1227 509.555 51.3547 510.793 50.288L517.193 56.944C513.822 60.6987 508.894 62.576 502.409 62.576C498.355 62.576 494.793 61.808 491.721 60.272C488.649 58.736 486.259 56.6027 484.553 53.872C482.889 51.1413 482.057 48.048 482.057 44.592C482.057 41.1787 482.867 38.128 484.489 35.44C486.153 32.7093 488.435 30.576 491.337 29.04C494.238 27.504 497.502 26.736 501.129 26.736C504.585 26.736 507.721 27.4613 510.537 28.912C513.353 30.32 515.571 32.3893 517.193 35.12C518.857 37.808 519.689 41.008 519.689 44.72ZM501.193 35.376C499.315 35.376 497.737 35.9093 496.457 36.976C495.219 38.0427 494.43 39.4933 494.089 41.328H508.297C507.955 39.4933 507.145 38.0427 505.865 36.976C504.627 35.9093 503.07 35.376 501.193 35.376ZM550.127 26.736C554.437 26.736 557.893 28.016 560.495 30.576C563.141 33.136 564.463 36.9973 564.463 42.16V62H552.303V44.144C552.303 39.408 550.405 37.04 546.607 37.04C544.517 37.04 542.831 37.7227 541.551 39.088C540.314 40.4533 539.695 42.5013 539.695 45.232V62H527.535V27.312H539.119V31.088C540.485 29.68 542.106 28.6133 543.983 27.888C545.861 27.12 547.909 26.736 550.127 26.736ZM604.546 52.912V62H572.546V54.832L588.61 36.336H572.994V27.312H603.906V34.416L587.842 52.912H604.546ZM626.924 26.736C632.684 26.736 637.079 28.0587 640.108 30.704C643.138 33.3067 644.652 37.3173 644.652 42.736V62H633.324V57.52C631.575 60.8907 628.162 62.576 623.084 62.576C620.396 62.576 618.071 62.1067 616.108 61.168C614.146 60.2293 612.652 58.9707 611.628 57.392C610.647 55.7707 610.156 53.936 610.156 51.888C610.156 48.6027 611.415 46.064 613.932 44.272C616.45 42.4373 620.332 41.52 625.58 41.52H632.492C632.279 37.8507 629.826 36.016 625.132 36.016C623.468 36.016 621.783 36.2933 620.076 36.848C618.37 37.36 616.919 38.0853 615.724 39.024L611.628 30.768C613.548 29.488 615.874 28.5067 618.604 27.824C621.378 27.0987 624.151 26.736 626.924 26.736ZM626.476 54.896C627.884 54.896 629.122 54.5547 630.188 53.872C631.255 53.1893 632.023 52.1867 632.492 50.864V47.856H627.244C623.703 47.856 621.932 49.0293 621.932 51.376C621.932 52.4427 622.338 53.296 623.148 53.936C623.959 54.576 625.068 54.896 626.476 54.896ZM690.217 26.736C695.977 26.736 700.371 28.0587 703.401 30.704C706.43 33.3067 707.945 37.3173 707.945 42.736V62H696.617V57.52C694.867 60.8907 691.454 62.576 686.377 62.576C683.689 62.576 681.363 62.1067 679.401 61.168C677.438 60.2293 675.945 58.9707 674.921 57.392C673.939 55.7707 673.449 53.936 673.449 51.888C673.449 48.6027 674.707 46.064 677.225 44.272C679.742 42.4373 683.625 41.52 688.873 41.52H695.785C695.571 37.8507 693.118 36.016 688.425 36.016C686.761 36.016 685.075 36.2933 683.369 36.848C681.662 37.36 680.211 38.0853 679.017 39.024L674.921 30.768C676.841 29.488 679.166 28.5067 681.897 27.824C684.67 27.0987 687.443 26.736 690.217 26.736ZM689.769 54.896C691.177 54.896 692.414 54.5547 693.481 53.872C694.547 53.1893 695.315 52.1867 695.785 50.864V47.856H690.537C686.995 47.856 685.225 49.0293 685.225 51.376C685.225 52.4427 685.63 53.296 686.441 53.936C687.251 54.576 688.361 54.896 689.769 54.896ZM736.088 62.576C732.248 62.576 728.814 61.808 725.784 60.272C722.755 58.736 720.387 56.6027 718.68 53.872C717.016 51.1413 716.184 48.048 716.184 44.592C716.184 41.136 717.016 38.064 718.68 35.376C720.387 32.6453 722.755 30.5333 725.784 29.04C728.814 27.504 732.248 26.736 736.088 26.736C740.014 26.736 743.406 27.5893 746.264 29.296C749.123 30.96 751.15 33.2853 752.344 36.272L742.936 41.072C741.358 37.9573 739.054 36.4 736.024 36.4C733.848 36.4 732.035 37.1253 730.584 38.576C729.176 40.0267 728.472 42.032 728.472 44.592C728.472 47.1947 729.176 49.2427 730.584 50.736C732.035 52.1867 733.848 52.912 736.024 52.912C739.054 52.912 741.358 51.3547 742.936 48.24L752.344 53.04C751.15 56.0267 749.123 58.3733 746.264 60.08C743.406 61.744 740.014 62.576 736.088 62.576ZM773.947 26.736C779.707 26.736 784.101 28.0587 787.131 30.704C790.16 33.3067 791.675 37.3173 791.675 42.736V62H780.347V57.52C778.597 60.8907 775.184 62.576 770.107 62.576C767.419 62.576 765.093 62.1067 763.131 61.168C761.168 60.2293 759.675 58.9707 758.651 57.392C757.669 55.7707 757.179 53.936 757.179 51.888C757.179 48.6027 758.437 46.064 760.955 44.272C763.472 42.4373 767.355 41.52 772.603 41.52H779.515C779.301 37.8507 776.848 36.016 772.155 36.016C770.491 36.016 768.805 36.2933 767.099 36.848C765.392 37.36 763.941 38.0853 762.747 39.024L758.651 30.768C760.571 29.488 762.896 28.5067 765.627 27.824C768.4 27.0987 771.173 26.736 773.947 26.736ZM773.499 54.896C774.907 54.896 776.144 54.5547 777.211 53.872C778.277 53.1893 779.045 52.1867 779.515 50.864V47.856H774.267C770.725 47.856 768.955 49.0293 768.955 51.376C768.955 52.4427 769.36 53.296 770.171 53.936C770.981 54.576 772.091 54.896 773.499 54.896ZM777.595 13.424H789.755L777.723 23.152H769.019L777.595 13.424ZM806.71 62.576C804.662 62.576 802.934 61.8933 801.526 60.528C800.118 59.1627 799.414 57.4347 799.414 55.344C799.414 53.2107 800.097 51.4827 801.462 50.16C802.87 48.8373 804.62 48.176 806.71 48.176C808.844 48.176 810.593 48.8373 811.958 50.16C813.324 51.4827 814.006 53.2107 814.006 55.344C814.006 57.4347 813.302 59.1627 811.894 60.528C810.529 61.8933 808.801 62.576 806.71 62.576ZM827.075 62.576C825.027 62.576 823.299 61.8933 821.891 60.528C820.483 59.1627 819.779 57.4347 819.779 55.344C819.779 53.2107 820.462 51.4827 821.827 50.16C823.235 48.8373 824.985 48.176 827.075 48.176C829.209 48.176 830.958 48.8373 832.323 50.16C833.689 51.4827 834.371 53.2107 834.371 55.344C834.371 57.4347 833.667 59.1627 832.259 60.528C830.894 61.8933 829.166 62.576 827.075 62.576ZM847.44 62.576C845.392 62.576 843.664 61.8933 842.256 60.528C840.848 59.1627 840.144 57.4347 840.144 55.344C840.144 53.2107 840.827 51.4827 842.192 50.16C843.6 48.8373 845.35 48.176 847.44 48.176C849.574 48.176 851.323 48.8373 852.688 50.16C854.054 51.4827 854.736 53.2107 854.736 55.344C854.736 57.4347 854.032 59.1627 852.624 60.528C851.259 61.8933 849.531 62.576 847.44 62.576Z" fill="#F3C126"/>
<path d="M16.4747 30.248H2.71474V20.2H42.8427V30.248H29.1467V65H16.4747V30.248ZM85.0202 30.312V65H73.4362V61.288C72.1562 62.696 70.6202 63.7627 68.8282 64.488C67.0362 65.2133 65.1376 65.576 63.1322 65.576C58.6522 65.576 55.0682 64.2533 52.3802 61.608C49.7349 58.9627 48.4122 54.9947 48.4122 49.704V30.312H60.5722V47.72C60.5722 50.3227 61.0629 52.2213 62.0442 53.416C63.0256 54.6107 64.4549 55.208 66.3322 55.208C68.2522 55.208 69.8096 54.5467 71.0042 53.224C72.2416 51.8587 72.8602 49.7893 72.8602 47.016V30.312H85.0202ZM152.502 30.312L138.166 65H125.622L111.35 30.312H123.83L132.15 51.496L140.918 30.312H152.502ZM157.885 30.312H170.045V65H157.885V30.312ZM163.965 26.472C161.747 26.472 159.955 25.8533 158.589 24.616C157.224 23.3787 156.541 21.8427 156.541 20.008C156.541 18.1733 157.224 16.6373 158.589 15.4C159.955 14.1627 161.747 13.544 163.965 13.544C166.184 13.544 167.976 14.1413 169.341 15.336C170.707 16.488 171.389 17.9813 171.389 19.816C171.389 21.736 170.707 23.336 169.341 24.616C167.976 25.8533 166.184 26.472 163.965 26.472ZM194.972 29.736C200.732 29.736 205.126 31.0587 208.156 33.704C211.185 36.3067 212.7 40.3173 212.7 45.736V65H201.372V60.52C199.622 63.8907 196.209 65.576 191.132 65.576C188.444 65.576 186.118 65.1067 184.156 64.168C182.193 63.2293 180.7 61.9707 179.676 60.392C178.694 58.7707 178.204 56.936 178.204 54.888C178.204 51.6027 179.462 49.064 181.98 47.272C184.497 45.4373 188.38 44.52 193.628 44.52H200.54C200.326 40.8507 197.873 39.016 193.18 39.016C191.516 39.016 189.83 39.2933 188.124 39.848C186.417 40.36 184.966 41.0853 183.772 42.024L179.676 33.768C181.596 32.488 183.921 31.5067 186.652 30.824C189.425 30.0987 192.198 29.736 194.972 29.736ZM194.524 57.896C195.932 57.896 197.169 57.5547 198.236 56.872C199.302 56.1893 200.07 55.1867 200.54 53.864V50.856H195.292C191.75 50.856 189.98 52.0293 189.98 54.376C189.98 55.4427 190.385 56.296 191.196 56.936C192.006 57.576 193.116 57.896 194.524 57.896ZM221.143 77.992C217.602 77.992 214.786 77.3947 212.695 76.2L215.767 67.56C216.877 68.2427 218.135 68.584 219.543 68.584C220.653 68.584 221.527 68.2 222.167 67.432C222.807 66.664 223.127 65.5333 223.127 64.04V30.312H235.287V64.104C235.287 68.3707 234.029 71.7413 231.511 74.216C229.037 76.7333 225.581 77.992 221.143 77.992ZM229.207 26.472C226.989 26.472 225.197 25.8533 223.831 24.616C222.466 23.3787 221.783 21.8427 221.783 20.008C221.783 18.1733 222.466 16.6373 223.831 15.4C225.197 14.1627 226.989 13.544 229.207 13.544C231.426 13.544 233.218 14.1413 234.583 15.336C235.949 16.488 236.631 17.9813 236.631 19.816C236.631 21.736 235.949 23.336 234.583 24.616C233.218 25.8533 231.426 26.472 229.207 26.472ZM280.811 47.72C280.811 47.8053 280.747 48.808 280.619 50.728H255.403C255.915 52.52 256.897 53.9067 258.347 54.888C259.841 55.8267 261.697 56.296 263.915 56.296C265.579 56.296 267.009 56.0613 268.203 55.592C269.441 55.1227 270.678 54.3547 271.915 53.288L278.315 59.944C274.945 63.6987 270.017 65.576 263.531 65.576C259.478 65.576 255.915 64.808 252.843 63.272C249.771 61.736 247.382 59.6027 245.675 56.872C244.011 54.1413 243.179 51.048 243.179 47.592C243.179 44.1787 243.99 41.128 245.611 38.44C247.275 35.7093 249.558 33.576 252.459 32.04C255.361 30.504 258.625 29.736 262.251 29.736C265.707 29.736 268.843 30.4613 271.659 31.912C274.475 33.32 276.694 35.3893 278.315 38.12C279.979 40.808 280.811 44.008 280.811 47.72ZM262.315 38.376C260.438 38.376 258.859 38.9093 257.579 39.976C256.342 41.0427 255.553 42.4933 255.211 44.328H269.419C269.078 42.4933 268.267 41.0427 266.987 39.976C265.75 38.9093 264.193 38.376 262.315 38.376ZM327.251 65.576C323.411 65.576 319.976 64.808 316.947 63.272C313.917 61.736 311.549 59.6027 309.843 56.872C308.179 54.1413 307.347 51.048 307.347 47.592C307.347 44.136 308.179 41.064 309.843 38.376C311.549 35.6453 313.917 33.5333 316.947 32.04C319.976 30.504 323.411 29.736 327.251 29.736C331.176 29.736 334.568 30.5893 337.427 32.296C340.285 33.96 342.312 36.2853 343.507 39.272L334.099 44.072C332.52 40.9573 330.216 39.4 327.187 39.4C325.011 39.4 323.197 40.1253 321.747 41.576C320.339 43.0267 319.635 45.032 319.635 47.592C319.635 50.1947 320.339 52.2427 321.747 53.736C323.197 55.1867 325.011 55.912 327.187 55.912C330.216 55.912 332.52 54.3547 334.099 51.24L343.507 56.04C342.312 59.0267 340.285 61.3733 337.427 63.08C334.568 64.744 331.176 65.576 327.251 65.576ZM367.358 65.576C363.646 65.576 360.297 64.808 357.31 63.272C354.324 61.736 351.977 59.6027 350.27 56.872C348.606 54.1413 347.774 51.048 347.774 47.592C347.774 44.1787 348.606 41.1067 350.27 38.376C351.977 35.6453 354.302 33.5333 357.246 32.04C360.233 30.504 363.604 29.736 367.358 29.736C371.113 29.736 374.484 30.504 377.47 32.04C380.457 33.5333 382.782 35.6453 384.446 38.376C386.11 41.064 386.942 44.136 386.942 47.592C386.942 51.048 386.11 54.1413 384.446 56.872C382.782 59.6027 380.457 61.736 377.47 63.272C374.484 64.808 371.113 65.576 367.358 65.576ZM367.358 55.912C369.492 55.912 371.241 55.1867 372.606 53.736C373.972 52.2427 374.654 50.1947 374.654 47.592C374.654 45.032 373.972 43.0267 372.606 41.576C371.241 40.1253 369.492 39.4 367.358 39.4C365.225 39.4 363.476 40.1253 362.11 41.576C360.745 43.0267 360.062 45.032 360.062 47.592C360.062 50.1947 360.745 52.2427 362.11 53.736C363.476 55.1867 365.225 55.912 367.358 55.912ZM439.999 29.736C444.266 29.736 447.658 31.016 450.175 33.576C452.735 36.136 454.015 39.9973 454.015 45.16V65H441.855V47.144C441.855 44.712 441.386 42.92 440.447 41.768C439.551 40.616 438.271 40.04 436.607 40.04C434.773 40.04 433.301 40.68 432.191 41.96C431.082 43.24 430.527 45.1813 430.527 47.784V65H418.367V47.144C418.367 42.408 416.618 40.04 413.119 40.04C411.242 40.04 409.749 40.68 408.639 41.96C407.53 43.24 406.975 45.1813 406.975 47.784V65H394.815V30.312H406.399V33.96C407.679 32.552 409.194 31.5067 410.943 30.824C412.735 30.0987 414.677 29.736 416.767 29.736C419.199 29.736 421.375 30.184 423.295 31.08C425.215 31.976 426.773 33.3413 427.967 35.176C429.333 33.4267 431.061 32.0827 433.151 31.144C435.242 30.2053 437.525 29.736 439.999 29.736ZM463.93 30.312H476.09V65H463.93V30.312ZM470.01 26.472C467.792 26.472 466 25.8533 464.634 24.616C463.269 23.3787 462.586 21.8427 462.586 20.008C462.586 18.1733 463.269 16.6373 464.634 15.4C466 14.1627 467.792 13.544 470.01 13.544C472.229 13.544 474.021 14.1413 475.386 15.336C476.752 16.488 477.434 17.9813 477.434 19.816C477.434 21.736 476.752 23.336 475.386 24.616C474.021 25.8533 472.229 26.472 470.01 26.472ZM521.689 47.72C521.689 47.8053 521.625 48.808 521.497 50.728H496.281C496.793 52.52 497.774 53.9067 499.225 54.888C500.718 55.8267 502.574 56.296 504.793 56.296C506.457 56.296 507.886 56.0613 509.081 55.592C510.318 55.1227 511.555 54.3547 512.793 53.288L519.193 59.944C515.822 63.6987 510.894 65.576 504.409 65.576C500.355 65.576 496.793 64.808 493.721 63.272C490.649 61.736 488.259 59.6027 486.553 56.872C484.889 54.1413 484.057 51.048 484.057 47.592C484.057 44.1787 484.867 41.128 486.489 38.44C488.153 35.7093 490.435 33.576 493.337 32.04C496.238 30.504 499.502 29.736 503.129 29.736C506.585 29.736 509.721 30.4613 512.537 31.912C515.353 33.32 517.571 35.3893 519.193 38.12C520.857 40.808 521.689 44.008 521.689 47.72ZM503.193 38.376C501.315 38.376 499.737 38.9093 498.457 39.976C497.219 41.0427 496.43 42.4933 496.089 44.328H510.297C509.955 42.4933 509.145 41.0427 507.865 39.976C506.627 38.9093 505.07 38.376 503.193 38.376ZM552.127 29.736C556.437 29.736 559.893 31.016 562.495 33.576C565.141 36.136 566.463 39.9973 566.463 45.16V65H554.303V47.144C554.303 42.408 552.405 40.04 548.607 40.04C546.517 40.04 544.831 40.7227 543.551 42.088C542.314 43.4533 541.695 45.5013 541.695 48.232V65H529.535V30.312H541.119V34.088C542.485 32.68 544.106 31.6133 545.983 30.888C547.861 30.12 549.909 29.736 552.127 29.736ZM606.546 55.912V65H574.546V57.832L590.61 39.336H574.994V30.312H605.906V37.416L589.842 55.912H606.546ZM628.924 29.736C634.684 29.736 639.079 31.0587 642.108 33.704C645.138 36.3067 646.652 40.3173 646.652 45.736V65H635.324V60.52C633.575 63.8907 630.162 65.576 625.084 65.576C622.396 65.576 620.071 65.1067 618.108 64.168C616.146 63.2293 614.652 61.9707 613.628 60.392C612.647 58.7707 612.156 56.936 612.156 54.888C612.156 51.6027 613.415 49.064 615.932 47.272C618.45 45.4373 622.332 44.52 627.58 44.52H634.492C634.279 40.8507 631.826 39.016 627.132 39.016C625.468 39.016 623.783 39.2933 622.076 39.848C620.37 40.36 618.919 41.0853 617.724 42.024L613.628 33.768C615.548 32.488 617.874 31.5067 620.604 30.824C623.378 30.0987 626.151 29.736 628.924 29.736ZM628.476 57.896C629.884 57.896 631.122 57.5547 632.188 56.872C633.255 56.1893 634.023 55.1867 634.492 53.864V50.856H629.244C625.703 50.856 623.932 52.0293 623.932 54.376C623.932 55.4427 624.338 56.296 625.148 56.936C625.959 57.576 627.068 57.896 628.476 57.896ZM692.217 29.736C697.977 29.736 702.371 31.0587 705.401 33.704C708.43 36.3067 709.945 40.3173 709.945 45.736V65H698.617V60.52C696.867 63.8907 693.454 65.576 688.377 65.576C685.689 65.576 683.363 65.1067 681.401 64.168C679.438 63.2293 677.945 61.9707 676.921 60.392C675.939 58.7707 675.449 56.936 675.449 54.888C675.449 51.6027 676.707 49.064 679.225 47.272C681.742 45.4373 685.625 44.52 690.873 44.52H697.785C697.571 40.8507 695.118 39.016 690.425 39.016C688.761 39.016 687.075 39.2933 685.369 39.848C683.662 40.36 682.211 41.0853 681.017 42.024L676.921 33.768C678.841 32.488 681.166 31.5067 683.897 30.824C686.67 30.0987 689.443 29.736 692.217 29.736ZM691.769 57.896C693.177 57.896 694.414 57.5547 695.481 56.872C696.547 56.1893 697.315 55.1867 697.785 53.864V50.856H692.537C688.995 50.856 687.225 52.0293 687.225 54.376C687.225 55.4427 687.63 56.296 688.441 56.936C689.251 57.576 690.361 57.896 691.769 57.896ZM738.088 65.576C734.248 65.576 730.814 64.808 727.784 63.272C724.755 61.736 722.387 59.6027 720.68 56.872C719.016 54.1413 718.184 51.048 718.184 47.592C718.184 44.136 719.016 41.064 720.68 38.376C722.387 35.6453 724.755 33.5333 727.784 32.04C730.814 30.504 734.248 29.736 738.088 29.736C742.014 29.736 745.406 30.5893 748.264 32.296C751.123 33.96 753.15 36.2853 754.344 39.272L744.936 44.072C743.358 40.9573 741.054 39.4 738.024 39.4C735.848 39.4 734.035 40.1253 732.584 41.576C731.176 43.0267 730.472 45.032 730.472 47.592C730.472 50.1947 731.176 52.2427 732.584 53.736C734.035 55.1867 735.848 55.912 738.024 55.912C741.054 55.912 743.358 54.3547 744.936 51.24L754.344 56.04C753.15 59.0267 751.123 61.3733 748.264 63.08C745.406 64.744 742.014 65.576 738.088 65.576ZM775.947 29.736C781.707 29.736 786.101 31.0587 789.131 33.704C792.16 36.3067 793.675 40.3173 793.675 45.736V65H782.347V60.52C780.597 63.8907 777.184 65.576 772.107 65.576C769.419 65.576 767.093 65.1067 765.131 64.168C763.168 63.2293 761.675 61.9707 760.651 60.392C759.669 58.7707 759.179 56.936 759.179 54.888C759.179 51.6027 760.437 49.064 762.955 47.272C765.472 45.4373 769.355 44.52 774.603 44.52H781.515C781.301 40.8507 778.848 39.016 774.155 39.016C772.491 39.016 770.805 39.2933 769.099 39.848C767.392 40.36 765.941 41.0853 764.747 42.024L760.651 33.768C762.571 32.488 764.896 31.5067 767.627 30.824C770.4 30.0987 773.173 29.736 775.947 29.736ZM775.499 57.896C776.907 57.896 778.144 57.5547 779.211 56.872C780.277 56.1893 781.045 55.1867 781.515 53.864V50.856H776.267C772.725 50.856 770.955 52.0293 770.955 54.376C770.955 55.4427 771.36 56.296 772.171 56.936C772.981 57.576 774.091 57.896 775.499 57.896ZM779.595 16.424H791.755L779.723 26.152H771.019L779.595 16.424ZM808.71 65.576C806.662 65.576 804.934 64.8933 803.526 63.528C802.118 62.1627 801.414 60.4347 801.414 58.344C801.414 56.2107 802.097 54.4827 803.462 53.16C804.87 51.8373 806.62 51.176 808.71 51.176C810.844 51.176 812.593 51.8373 813.958 53.16C815.324 54.4827 816.006 56.2107 816.006 58.344C816.006 60.4347 815.302 62.1627 813.894 63.528C812.529 64.8933 810.801 65.576 808.71 65.576ZM829.075 65.576C827.027 65.576 825.299 64.8933 823.891 63.528C822.483 62.1627 821.779 60.4347 821.779 58.344C821.779 56.2107 822.462 54.4827 823.827 53.16C825.235 51.8373 826.985 51.176 829.075 51.176C831.209 51.176 832.958 51.8373 834.323 53.16C835.689 54.4827 836.371 56.2107 836.371 58.344C836.371 60.4347 835.667 62.1627 834.259 63.528C832.894 64.8933 831.166 65.576 829.075 65.576ZM849.44 65.576C847.392 65.576 845.664 64.8933 844.256 63.528C842.848 62.1627 842.144 60.4347 842.144 58.344C842.144 56.2107 842.827 54.4827 844.192 53.16C845.6 51.8373 847.35 51.176 849.44 51.176C851.574 51.176 853.323 51.8373 854.688 53.16C856.054 54.4827 856.736 56.2107 856.736 58.344C856.736 60.4347 856.032 62.1627 854.624 63.528C853.259 64.8933 851.531 65.576 849.44 65.576Z" fill="#231C17"/>
</svg>
